<svg viewBox="0 0 21 21" fill="none" xmlns="http://www.w3.org/2000/svg">
<path d="M13.75 4.52252C14.9873 5.02297 16.0469 5.88181 16.7926 6.98877C17.5383 8.09574 17.9361 9.40031 17.935 10.735C17.9361 12.0697 17.5382 13.3742 16.7925 14.481C16.0468 15.5879 14.9873 16.4467 13.75 16.947V18.3445C15.3514 17.8171 16.7454 16.7975 17.7331 15.431C18.7207 14.0645 19.2516 12.4211 19.25 10.735C19.25 7.18552 16.9455 4.17252 13.75 3.12102V4.52252V4.52252ZM13.75 7.82202C14.1711 8.1816 14.509 8.62838 14.7404 9.13143C14.9717 9.63449 15.091 10.1818 15.09 10.7355C15.0911 11.2892 14.9718 11.8364 14.7404 12.3394C14.5091 12.8424 14.1711 13.2891 13.75 13.6485V15.0705C15.245 14.205 16.25 12.5875 16.25 10.7355C16.2503 9.85711 16.0195 8.99408 15.5807 8.23314C15.1418 7.47221 14.5105 6.84016 13.75 6.40052V7.82202V7.82202ZM2.25 14.7395H6.25L10.75 20.247C11.25 20.967 12.42 20.9125 12.75 20.096V1.41502C12.3445 0.59902 11.2805 0.53352 10.75 1.22402L6.25 6.75052H2.25C0.9695 6.75052 0.75 6.98102 0.75 8.23252V13.2385C0.75 14.4595 1 14.7395 2.25 14.7395Z" fill="#FBFAF8"/>
</svg>
