<svg viewBox="0 0 62 62" fill="none" xmlns="http://www.w3.org/2000/svg">
<path d="M62 30.9965C61.9987 25.3338 60.4468 19.7795 57.5125 14.9365C54.5782 10.0935 50.3737 6.14671 45.3552 3.52445C40.3368 0.902195 34.696 -0.295372 29.0452 0.0617116C23.3943 0.418796 17.9492 2.31689 13.3007 5.55002C8.65215 8.78315 4.97779 13.2278 2.67634 18.4017C0.374895 23.5755 -0.465735 29.281 0.245678 34.8989C0.957091 40.5168 3.19337 45.8325 6.71184 50.2692C10.2303 54.7059 14.8966 58.0941 20.2043 60.0662L19.375 62H42.625L41.7958 60.0662C47.7269 57.8613 52.8416 53.8944 56.4532 48.6981C60.0648 43.5018 62.0003 37.3249 62 30.9965ZM29.4733 38.4335C28.653 38.0818 27.9793 37.4578 27.5659 36.6669C27.1525 35.8759 27.0247 34.9664 27.2042 34.0922C27.3836 33.2179 27.8594 32.4324 28.5509 31.8683C29.2425 31.3042 30.1076 30.9961 31 30.9961C31.8924 30.9961 32.7575 31.3042 33.4491 31.8683C34.1407 32.4324 34.6164 33.2179 34.7958 34.0922C34.9753 34.9664 34.8475 35.8759 34.4341 36.6669C34.0207 37.4578 33.347 38.0818 32.5268 38.4335L31 34.872L29.4733 38.4335ZM32.5888 38.5846C34.4657 38.1939 36.1312 37.1212 37.2634 35.5739C38.3956 34.0266 38.9142 32.1145 38.719 30.2071C38.5237 28.2997 37.6285 26.5324 36.2063 25.2466C34.7841 23.9609 32.9359 23.2479 31.0187 23.2456C29.1016 23.2433 27.2516 23.9517 25.8262 25.234C24.4009 26.5163 23.5014 28.2814 23.3015 30.1883C23.1016 32.0953 23.6155 34.0086 24.744 35.5586C25.8724 37.1087 27.5353 38.1854 29.4113 38.5808L24.893 49.1258C22.1054 47.9296 19.7298 45.9421 18.0603 43.4093C16.3907 40.8764 15.5006 37.9095 15.5 34.8759C15.5 26.315 22.4401 18.6455 31 18.6455C39.5599 18.6455 46.5 26.3111 46.5 34.8759C46.5004 37.9098 45.6107 40.8771 43.941 43.4101C42.2714 45.9431 39.8952 47.9305 37.107 49.1258L32.5888 38.5846ZM41.6834 59.8026L37.2078 49.3583C41.5539 47.8812 45.2348 44.9094 47.5952 40.9721C49.9555 37.0348 50.842 32.3874 50.0969 27.8576C49.3518 23.3277 47.0234 19.2093 43.5262 16.2357C40.0291 13.2621 35.5902 11.6262 31 11.6194C26.4035 11.6151 21.9552 13.2452 18.4497 16.2186C14.9442 19.192 12.6099 23.315 11.8637 27.8511C11.1176 32.3871 12.0082 37.0407 14.3766 40.9805C16.7449 44.9204 20.4366 47.8898 24.7923 49.3583L20.3166 59.8026C15.4389 57.7113 11.2822 54.2343 8.36159 49.8027C5.44102 45.371 3.88507 40.1796 3.88664 34.872C3.88664 19.8934 16.027 7.027 31 7.027C45.973 7.027 58.1134 19.8934 58.1134 34.872C58.1134 40.1793 56.5569 45.37 53.6365 49.8014C50.7161 54.2327 46.5602 57.71 41.6834 59.8026Z" fill="black"/>
</svg>
