<svg width="37" height="37" viewBox="0 0 37 37" fill="none" xmlns="http://www.w3.org/2000/svg">
<path d="M18.5 0C8.2991 0 0 8.2991 0 18.5C0 28.7009 8.2991 37 18.5 37C28.7009 37 37 28.7009 37 18.5C37 8.2991 28.7009 0 18.5 0ZM20.35 29.6H16.65V25.9H20.35V29.6ZM22.1556 20.5627C21.793 20.855 21.4433 21.1344 21.1658 21.4119C20.4111 22.1649 20.3519 22.8493 20.35 22.879V23.125H16.65V22.8161C16.65 22.5977 16.7036 20.6386 18.5481 18.7942C18.9088 18.4334 19.3566 18.0671 19.8265 17.686C21.1844 16.5853 22.076 15.7823 22.076 14.676C22.0546 13.7415 21.6681 12.8524 20.9995 12.1991C20.3308 11.5458 19.433 11.1802 18.4982 11.1804C17.5633 11.1807 16.6657 11.5468 15.9974 12.2004C15.3291 12.8541 14.9431 13.7433 14.9221 14.6779H11.2221C11.2221 10.6653 14.4874 7.4 18.5 7.4C22.5126 7.4 25.7779 10.6653 25.7779 14.6779C25.7779 17.6324 23.5968 19.3954 22.1556 20.5627Z" fill="black"/>
</svg>
