<svg width="638" height="208" viewBox="0 0 638 208" fill="none" xmlns="http://www.w3.org/2000/svg">
<path fill-rule="evenodd" clip-rule="evenodd" d="M604.674 138.22C610.442 138.22 615.674 139.103 620.369 140.868C625.061 142.633 628.784 144.898 631.543 147.652C634.3 150.409 635.805 153.294 636.064 156.31C636.152 157.262 635.827 158.079 635.098 158.764C634.362 159.457 633.523 159.8 632.575 159.8H617.205C616.257 159.8 615.138 159.33 613.844 158.378C612.724 157.517 611.521 156.85 610.227 156.376C608.936 155.901 607.084 155.664 604.674 155.664C602.604 155.664 600.93 155.967 599.636 156.569C598.345 157.171 597.7 158.079 597.7 159.282C597.7 160.318 597.934 161.091 598.407 161.609C598.881 162.127 599.742 162.514 600.992 162.773C602.239 163.031 604.416 163.374 607.514 163.805L615.524 165.099C623.016 166.307 628.634 168.867 632.382 172.787C636.13 176.708 638 181.38 638 186.807C638 190.684 636.688 194.24 634.059 197.467C631.434 200.699 627.646 203.262 622.692 205.159C617.741 207.052 611.907 208 605.188 208C598.732 208 593.114 207.074 588.331 205.225C583.555 203.372 579.891 201.023 577.353 198.178C574.809 195.337 573.416 192.452 573.154 189.52C573.07 188.576 573.39 187.759 574.123 187.066C574.852 186.38 575.695 186.034 576.642 186.034H592.662C593.263 186.034 593.759 186.143 594.146 186.355C594.536 186.57 594.988 186.938 595.502 187.456C596.534 188.401 597.7 189.156 598.991 189.717C600.281 190.275 602.348 190.556 605.188 190.556C607.861 190.556 610.121 190.191 611.973 189.455C613.825 188.725 614.751 187.759 614.751 186.548C614.751 185.173 614.08 184.247 612.75 183.772C611.412 183.298 608.55 182.718 604.157 182.025L594.857 180.475C588.312 179.272 583.274 176.836 579.741 173.174C576.209 169.512 574.448 164.797 574.448 159.023C574.448 155.146 575.716 151.638 578.258 148.491C580.795 145.35 584.371 142.852 588.98 140.999C593.584 139.147 598.816 138.22 604.674 138.22ZM124.867 138.22C132.873 138.22 139.479 139.919 144.693 143.326C149.902 146.728 153.716 151.123 156.126 156.502C158.536 161.889 159.742 167.509 159.742 173.367V176.988C159.742 177.936 159.396 178.753 158.711 179.443C158.018 180.132 157.201 180.475 156.253 180.475H113.237C113.237 184.093 114.4 186.678 116.726 188.228C119.052 189.778 121.765 190.555 124.867 190.555C127.277 190.555 129.257 190.296 130.806 189.778C132.356 189.264 133.69 188.531 134.809 187.583C135.757 186.806 136.446 186.314 136.876 186.099C137.31 185.883 138.043 185.774 139.075 185.774H155.867C156.727 185.774 157.416 186.033 157.934 186.551C158.448 187.065 158.711 187.758 158.711 188.619C158.711 190.34 157.416 192.773 154.831 195.916C152.25 199.064 148.415 201.861 143.336 204.319C138.254 206.774 132.1 207.999 124.867 207.999C113.755 207.999 105.166 204.921 99.0919 198.761C93.0218 192.601 89.9849 184.053 89.9849 173.111C89.9849 166.306 91.3411 160.274 94.0536 155.018C96.766 149.763 100.751 145.649 106.004 142.676C111.258 139.704 117.543 138.22 124.867 138.22ZM251.2 138.22C259.21 138.22 265.816 139.919 271.029 143.326C276.239 146.728 280.049 151.123 282.462 156.502C284.872 161.889 286.079 167.509 286.079 173.367V176.988C286.079 177.936 285.732 178.753 285.047 179.443C284.354 180.132 283.538 180.475 282.59 180.475H239.574C239.574 184.093 240.737 186.678 243.063 188.228C245.389 189.778 248.101 190.555 251.2 190.555C253.61 190.555 255.593 190.296 257.139 189.778C258.692 189.264 260.026 188.531 261.146 187.583C262.094 186.806 262.779 186.314 263.213 186.099C263.643 185.883 264.376 185.774 265.407 185.774H282.2C283.064 185.774 283.753 186.033 284.27 186.551C284.784 187.065 285.047 187.758 285.047 188.619C285.047 190.34 283.753 192.773 281.168 195.916C278.583 199.064 274.751 201.861 269.673 204.319C264.587 206.774 258.433 207.999 251.2 207.999C240.092 207.999 231.499 204.921 225.428 198.761C219.358 192.601 216.321 184.053 216.321 173.111C216.321 166.306 217.678 160.274 220.39 155.018C223.102 149.763 227.084 145.649 232.341 142.676C237.591 139.704 243.879 138.22 251.2 138.22ZM434.117 114.959C435.057 114.959 435.878 115.302 436.567 115.991C437.256 116.684 437.602 117.501 437.602 118.45V203.219C437.602 204.171 437.256 204.988 436.567 205.673C435.878 206.366 435.057 206.709 434.117 206.709H418.48C417.536 206.709 416.716 206.366 416.03 205.673C415.338 204.988 414.995 204.171 414.995 203.219V200.246C413.617 201.884 412.304 203.219 411.054 204.254C409.807 205.287 408.039 206.173 405.76 206.902C403.474 207.632 400.569 208 397.043 208C388.855 208 382.074 205.502 376.697 200.505C371.312 195.509 368.446 188.145 368.104 178.408L367.976 173.108L368.104 167.94C368.446 158.206 371.29 150.817 376.631 145.777C381.968 140.737 388.771 138.217 397.043 138.217C401.517 138.217 405.133 138.994 407.889 140.544C410.646 142.094 412.8 143.906 414.35 145.97V118.45C414.35 117.501 414.692 116.684 415.385 115.991C416.07 115.302 416.891 114.959 417.839 114.959H434.117ZM478.599 138.22C486.609 138.22 493.215 139.919 498.424 143.326C503.638 146.728 507.448 151.123 509.861 156.502C512.267 161.889 513.478 167.509 513.478 173.367V176.988C513.478 177.936 513.131 178.753 512.442 179.443C511.75 180.132 510.937 180.475 509.989 180.475H466.973C466.973 184.093 468.132 186.678 470.458 188.228C472.784 189.778 475.496 190.555 478.599 190.555C481.009 190.555 482.992 190.296 484.538 189.778C486.091 189.264 487.422 188.531 488.545 187.583C489.492 186.806 490.178 186.314 490.608 186.099C491.042 185.883 491.775 185.774 492.806 185.774H509.599C510.463 185.774 511.148 186.033 511.666 186.551C512.183 187.065 512.442 187.758 512.442 188.619C512.442 190.34 511.148 192.773 508.567 195.916C505.982 199.064 502.15 201.861 497.072 204.319C491.986 206.774 485.832 207.999 478.599 207.999C467.49 207.999 458.897 204.921 452.827 198.761C446.754 192.601 443.72 184.053 443.72 173.111C443.72 166.306 445.077 160.274 447.789 155.018C450.501 149.763 454.483 145.649 459.74 142.676C464.99 139.704 471.278 138.22 478.599 138.22ZM333.485 138.217C342.18 138.217 349.027 140.675 354.025 145.584C359.02 150.497 361.517 157.86 361.517 167.682V203.219C361.517 204.167 361.17 204.988 360.481 205.674C359.796 206.366 358.976 206.709 358.028 206.709H341.75C340.805 206.709 339.985 206.366 339.296 205.674C338.607 204.988 338.264 204.167 338.264 203.219V170.527C338.264 166.734 337.338 163.739 335.49 161.544C333.634 159.348 330.813 158.251 327.025 158.251C323.324 158.251 320.546 159.326 318.694 161.478C316.842 163.634 315.916 166.65 315.916 170.527V203.219C315.916 204.167 315.573 204.988 314.884 205.674C314.195 206.366 313.375 206.709 312.427 206.709H296.153C295.205 206.709 294.388 206.366 293.699 205.674C293.006 204.988 292.664 204.167 292.664 203.219V142.998C292.664 142.054 293.006 141.237 293.699 140.544C294.388 139.855 295.205 139.512 296.153 139.512H311.785C312.73 139.512 313.546 139.855 314.235 140.544C314.928 141.237 315.271 142.054 315.271 142.998V145.971C319.318 140.803 325.388 138.217 333.485 138.217ZM538.534 139.512C539.482 139.512 540.302 139.855 540.987 140.544C541.68 141.234 542.023 142.054 542.023 142.999V145.971C546.5 141.668 552.227 139.512 559.201 139.512H566.952C567.9 139.512 568.72 139.855 569.409 140.544C570.095 141.234 570.441 142.054 570.441 142.999V156.052C570.441 157 570.095 157.821 569.409 158.506C568.72 159.199 567.9 159.542 566.952 159.542H555.202C551.323 159.542 548.37 160.556 546.35 162.58C544.327 164.604 543.317 167.555 543.317 171.431V203.219C543.317 204.168 542.971 204.985 542.281 205.674C541.589 206.367 540.776 206.71 539.828 206.71H523.55C522.602 206.71 521.785 206.367 521.096 205.674C520.407 204.985 520.064 204.168 520.064 203.219V142.999C520.064 142.054 520.407 141.234 521.096 140.544C521.785 139.855 522.602 139.512 523.55 139.512H538.534ZM43.5311 116.252C51.3657 116.252 58.3254 117.78 64.3956 120.837C70.4657 123.896 75.2452 128.164 78.7306 133.631C82.2195 139.105 84.0934 145.327 84.3523 152.304C84.5236 157.132 84.6111 160.232 84.6111 161.611C84.6111 162.99 84.5236 166.002 84.3523 170.656C84.0934 177.72 82.2633 183.964 78.8618 189.391C75.4604 194.821 70.7902 199.066 64.8476 202.119C58.9051 205.179 52.0147 206.707 44.18 206.707H9.2977C8.35346 206.707 7.53316 206.368 6.84777 205.675C6.15508 204.986 5.81238 204.169 5.81238 203.221V119.742C5.81238 118.794 6.15508 117.974 6.84777 117.284C7.53316 116.595 8.35346 116.252 9.2977 116.252H43.5311ZM213.739 111.082C214.683 111.082 215.504 111.425 216.193 112.115C216.882 112.804 217.228 113.624 217.228 114.573V127.622C217.228 128.57 216.882 129.391 216.193 130.08C215.504 130.769 214.683 131.112 213.739 131.112H202.113C198.409 131.112 196.56 132.965 196.56 136.667V139.511H212.449C213.396 139.511 214.209 139.854 214.902 140.544C215.588 141.237 215.934 142.053 215.934 143.002V156.051C215.934 156.999 215.588 157.82 214.902 158.505C214.209 159.198 213.396 159.541 212.449 159.541H196.56V203.219C196.56 204.171 196.214 204.988 195.525 205.673C194.836 206.366 194.016 206.709 193.071 206.709H176.797C175.845 206.709 175.025 206.366 174.34 205.673C173.647 204.988 173.308 204.171 173.308 203.219V159.541H164.391C163.446 159.541 162.626 159.198 161.941 158.505C161.248 157.82 160.905 156.999 160.905 156.051V143.002C160.905 142.053 161.248 141.237 161.941 140.544C162.626 139.854 163.446 139.511 164.391 139.511H173.308V136.021C173.308 128.267 175.933 122.177 181.186 117.738C186.436 113.3 193.203 111.082 201.468 111.082H213.739ZM402.851 158.25C399.063 158.25 396.241 159.282 394.393 161.35C392.537 163.418 391.484 166.131 391.228 169.49C391.137 170.355 391.097 171.558 391.097 173.108C391.097 174.662 391.137 175.869 391.228 176.73C391.484 180.085 392.537 182.802 394.393 184.87C396.241 186.938 399.063 187.97 402.851 187.97C406.384 187.97 409.071 186.982 410.926 184.998C412.778 183.017 413.916 180.563 414.35 177.634C414.521 176.774 414.608 175.264 414.608 173.108C414.608 170.957 414.521 169.447 414.35 168.586C414.003 165.745 412.884 163.309 410.992 161.285C409.096 159.264 406.384 158.25 402.851 158.25ZM42.8858 136.927H29.7101V186.032H43.5311C54.3844 186.032 60.0207 181.079 60.4545 171.17C60.6259 166.177 60.7134 162.902 60.7134 161.352C60.7134 159.627 60.6259 156.439 60.4545 151.786C60.1957 146.877 58.5806 143.175 55.6094 140.673C52.6381 138.175 48.3981 136.927 42.8858 136.927ZM251.2 155.664C247.842 155.664 245.148 156.678 243.128 158.702C241.101 160.726 239.917 163.202 239.574 166.131H262.826C262.48 163.202 261.295 160.726 259.272 158.702C257.248 156.678 254.558 155.664 251.2 155.664ZM124.867 155.664C121.506 155.664 118.812 156.678 116.792 158.702C114.765 160.726 113.584 163.202 113.237 166.131H136.49C136.143 163.202 134.959 160.726 132.935 158.702C130.916 156.678 128.221 155.664 124.867 155.664ZM478.599 155.664C475.241 155.664 472.543 156.678 470.524 158.702C468.5 160.726 467.316 163.202 466.973 166.131H490.225C489.879 163.202 488.694 160.726 486.671 158.702C484.647 156.678 481.957 155.664 478.599 155.664ZM104.31 27.1383C105.254 27.1383 106.074 27.4848 106.767 28.1741C107.452 28.8634 107.799 29.6803 107.799 30.6285V63.3246C107.799 67.1979 108.659 70.214 110.384 72.3694C112.101 74.5212 114.773 75.5971 118.39 75.5971C125.364 75.5971 128.853 71.5087 128.853 63.3246V30.6285C128.853 29.6803 129.199 28.8634 129.885 28.1741C130.577 27.4848 131.39 27.1383 132.342 27.1383H148.616C149.564 27.1383 150.381 27.4848 151.073 28.1741C151.759 28.8634 152.105 29.6803 152.105 30.6285V90.8492C152.105 91.7974 151.759 92.6143 151.073 93.3036C150.381 93.9929 149.564 94.3358 148.616 94.3358H133.636C132.684 94.3358 131.868 93.9929 131.179 93.3036C130.486 92.6143 130.147 91.7974 130.147 90.8492V87.8768C128.339 90.1161 126.035 91.9688 123.235 93.4313C120.438 94.8938 116.665 95.6305 111.933 95.6305C103.318 95.6305 96.599 93.176 91.7794 88.2634C86.9561 83.3508 84.5462 75.9873 84.5462 66.1657V30.6285C84.5462 29.6803 84.8926 28.8634 85.578 28.1741C86.267 27.4848 87.0837 27.1383 88.0352 27.1383H104.31ZM73.5015 3.87757C74.4494 3.87757 75.2624 4.22404 75.9551 4.91334C76.6441 5.60264 76.9905 6.42324 76.9905 7.36783V61.3847C76.9905 68.7081 75.2624 74.9337 71.8208 80.0578C68.3793 85.1856 63.7237 89.0588 57.8723 91.6884C52.0136 94.3179 45.5534 95.6308 38.4916 95.6308C31.1746 95.6308 24.6087 94.3799 18.7937 91.8816C12.9788 89.3834 8.41435 85.8093 5.10038 81.1556C1.78641 76.5019 0.0838517 71.1626 0 65.1303C0 64.3571 0.277074 63.6897 0.838516 63.1281C1.39996 62.5701 2.06712 62.2892 2.84002 62.2892H19.377C20.9265 62.2892 21.9801 62.5263 22.5379 63.0004C23.0993 63.4745 23.6389 64.4848 24.1566 66.0348C25.1883 69.0509 26.8216 71.2939 29.0637 72.7564C31.3022 74.2225 34.4448 74.9555 38.4916 74.9555C43.3185 74.9555 46.9788 73.7265 49.4725 71.2684C51.9735 68.8139 53.2203 65.2616 53.2203 60.6079V24.5565H22.8624C21.9181 24.5565 21.0978 24.2101 20.4088 23.5208C19.7197 22.8315 19.377 22.0145 19.377 21.0663V7.36783C19.377 6.42324 19.7197 5.60264 20.4088 4.91334C21.0978 4.22404 21.9181 3.87757 22.8624 3.87757H73.5015ZM189.225 25.8483C194.996 25.8483 200.224 26.7309 204.924 28.4961C209.616 30.2613 213.338 32.5261 216.094 35.2797C218.85 38.0405 220.36 40.9254 220.615 43.9378C220.702 44.8897 220.378 45.7067 219.649 46.396C218.912 47.0853 218.074 47.4281 217.13 47.4281H201.756C200.808 47.4281 199.689 46.9576 198.398 46.0057C197.279 45.1487 196.072 44.4776 194.781 44.0035C193.491 43.5294 191.635 43.2923 189.225 43.2923C187.158 43.2923 185.481 43.595 184.187 44.1968C182.9 44.8022 182.251 45.7067 182.251 46.9102C182.251 47.946 182.484 48.7192 182.962 49.2371C183.432 49.7549 184.293 50.1415 185.543 50.4005C186.794 50.6594 188.97 51.0022 192.069 51.4362L200.075 52.7273C207.567 53.9345 213.189 56.4947 216.933 60.4153C220.681 64.336 222.551 69.0079 222.551 74.4347C222.551 78.3116 221.238 81.8675 218.613 85.0988C215.989 88.3265 212.197 90.8904 207.246 92.7869C202.295 94.6797 196.458 95.6279 189.739 95.6279C183.283 95.6279 177.665 94.7016 172.885 92.8525C168.106 90.9998 164.445 88.6511 161.908 85.8064C159.363 82.9653 157.967 80.0804 157.704 77.1482C157.62 76.2036 157.945 75.3866 158.674 74.6937C159.407 74.008 160.245 73.6616 161.193 73.6616H177.213C177.814 73.6616 178.314 73.771 178.696 73.9825C179.087 74.2013 179.539 74.566 180.053 75.0839C181.084 76.0322 182.251 76.7835 183.542 77.3451C184.836 77.9031 186.899 78.1839 189.739 78.1839C192.412 78.1839 194.672 77.8192 196.524 77.0862C198.376 76.3531 199.302 75.3866 199.302 74.1758C199.302 72.8008 198.635 71.8745 197.301 71.4004C195.966 70.9262 193.101 70.3464 188.708 69.6534L179.411 68.1034C172.863 66.8999 167.825 64.4636 164.296 60.8019C160.763 57.1439 158.999 52.4246 158.999 46.6513C158.999 42.7744 160.271 39.2659 162.812 36.1222C165.349 32.9784 168.926 30.4801 173.53 28.6274C178.139 26.7747 183.367 25.8483 189.225 25.8483ZM350.776 25.8476C359.045 25.8476 365.72 27.3137 370.798 30.2423C375.881 33.1709 379.497 36.4898 381.652 40.1916C383.803 43.897 384.966 47.0408 385.137 49.6229C385.221 50.5712 384.9 51.3918 384.167 52.0811C383.438 52.7704 382.6 53.1132 381.652 53.1132H364.728C363.868 53.1132 363.157 52.898 362.596 52.4676C362.034 52.0373 361.498 51.3917 360.984 50.531C359.949 48.9774 358.655 47.814 357.105 47.0408C355.559 46.264 353.445 45.8774 350.776 45.8774C347.418 45.8774 344.684 46.8256 342.573 48.7184C340.462 50.6149 339.281 53.1132 339.019 56.2132C338.935 57.0775 338.891 58.5875 338.891 60.7392C338.891 62.891 338.935 64.4009 339.019 65.2616C339.281 68.3616 340.462 70.8599 342.573 72.7564C344.684 74.6528 347.418 75.5974 350.776 75.5974C353.445 75.5974 355.559 75.2108 357.105 74.434C358.655 73.6608 359.949 72.4974 360.984 70.9474C361.498 70.0867 362.034 69.4412 362.596 69.0072C363.157 68.5768 363.868 68.3616 364.728 68.3616H381.652C382.6 68.3616 383.413 68.6862 384.105 69.3317C384.791 69.9773 385.137 70.7322 385.137 71.5929C385.137 74.0912 384.062 77.2131 381.907 80.9623C379.752 84.7078 376.114 88.0923 370.992 91.1048C365.869 94.121 359.129 95.6272 350.776 95.6272C344.32 95.6272 338.483 94.4018 333.273 91.9473C328.063 89.4892 323.885 86.0244 320.743 81.5422C317.596 77.0636 315.941 71.8519 315.77 65.9071L315.639 60.7392L315.77 55.5713C315.941 49.6229 317.596 44.4149 320.743 39.9326C323.885 35.454 328.063 31.9856 333.273 29.5275C338.483 27.0766 344.32 25.8476 350.776 25.8476ZM423.457 25.8476C431.463 25.8476 438.069 27.5471 443.283 30.9535C448.493 34.3562 452.302 38.751 454.716 44.1341C457.126 49.5172 458.332 55.1373 458.332 60.9945V64.6161C458.332 65.5643 457.986 66.3813 457.301 67.0706C456.608 67.7599 455.791 68.1027 454.843 68.1027H411.828C411.828 71.7242 412.99 74.3064 415.316 75.86C417.642 77.4064 420.355 78.1832 423.457 78.1832C425.864 78.1832 427.847 77.9243 429.396 77.4064C430.946 76.8922 432.28 76.1591 433.399 75.2108C434.347 74.434 435.033 73.9417 435.466 73.7265C435.897 73.5113 436.629 73.4019 437.665 73.4019H454.453C455.317 73.4019 456.006 73.6608 456.524 74.1787C457.038 74.693 457.301 75.3859 457.301 76.2466C457.301 77.9717 456.006 80.4043 453.422 83.5444C450.837 86.6919 447.005 89.4892 441.927 91.9473C436.841 94.4018 430.687 95.6272 423.457 95.6272C412.345 95.6272 403.752 92.5491 397.682 86.3891C391.612 80.2292 388.575 71.6805 388.575 60.7392C388.575 53.9338 389.931 47.9051 392.644 42.646C395.356 37.3906 399.337 33.2767 404.594 30.3043C409.844 27.332 416.133 25.8476 423.457 25.8476ZM256.74 2.58578C257.684 2.58578 258.501 2.93225 259.19 3.62155C259.879 4.31085 260.225 5.1278 260.225 6.07604V27.1379H274.819C275.767 27.1379 276.587 27.4844 277.276 28.1737C277.966 28.8666 278.312 29.6799 278.312 30.6282V43.6811C278.312 44.6293 277.966 45.4463 277.276 46.1356C276.587 46.8249 275.767 47.1714 274.819 47.1714H260.225V68.102C260.225 72.2377 262.074 74.3056 265.778 74.3056H276.113C277.061 74.3056 277.874 74.6521 278.567 75.3414C279.256 76.0307 279.602 76.8476 279.602 77.7959V90.8488C279.602 91.797 279.256 92.614 278.567 93.3033C277.874 93.9926 277.061 94.3354 276.113 94.3354H263.842C255.661 94.3354 249.139 92.056 244.272 87.4862C239.408 82.92 236.973 76.72 236.973 68.8788V47.1714H227.414C226.466 47.1714 225.646 46.8249 224.96 46.1356C224.268 45.4463 223.929 44.6293 223.929 43.6811V30.6282C223.929 29.6799 224.268 28.8666 224.96 28.1737C225.646 27.4844 226.466 27.1379 227.414 27.1379H236.973V6.07604C236.973 5.1278 237.316 4.31085 238.008 3.62155C238.694 2.93225 239.514 2.58578 240.462 2.58578H256.74ZM305.179 27.1379C306.127 27.1379 306.944 27.4844 307.633 28.1737C308.318 28.8666 308.664 29.6799 308.664 30.6282V90.8488C308.664 91.797 308.318 92.614 307.633 93.3033C306.944 93.9926 306.127 94.3354 305.179 94.3354H288.901C287.957 94.3354 287.136 93.9926 286.447 93.3033C285.758 92.614 285.412 91.797 285.412 90.8488V30.6282C285.412 29.6799 285.758 28.8666 286.447 28.1737C287.136 27.4844 287.957 27.1379 288.901 27.1379H305.179ZM423.457 43.2916C420.096 43.2916 417.402 44.3055 415.382 46.3296C413.355 48.3537 412.17 50.8301 411.828 53.7587H435.08C434.734 50.8301 433.549 48.3537 431.525 46.3296C429.506 44.3055 426.811 43.2916 423.457 43.2916ZM305.179 0C306.127 0 306.944 0.346474 307.633 1.03577C308.318 1.72507 308.664 2.54566 308.664 3.4939V16.5432C308.664 17.4914 308.318 18.312 307.633 18.9976C306.944 19.6906 306.127 20.0334 305.179 20.0334H288.901C287.957 20.0334 287.136 19.6906 286.447 18.9976C285.758 18.312 285.412 17.4914 285.412 16.5432V3.4939C285.412 2.54566 285.758 1.72507 286.447 1.03577C287.136 0.346474 287.957 0 288.901 0H305.179Z" fill="white"/>
</svg>
