<svg viewBox="0 0 127 108" fill="none" xmlns="http://www.w3.org/2000/svg">
<path fill-rule="evenodd" clip-rule="evenodd" d="M122.464 0H72.5714L69.3964 1.36709L63.5 7.2L57.6036 1.36709L54.4286 0H4.53571L0 4.55696V95.6962L4.53571 100.253H52.5236L60.325 108H66.675L74.4764 100.253H122.464L127 95.6962V4.55696L122.464 0ZM58.9643 94.0557L57.3314 92.5063L54.4286 91.1392H9.07143V9.11392H52.5236L59.2364 15.8582L58.9643 94.0557ZM117.929 91.1392H72.5714L69.3964 92.5063L68.1264 93.6911V15.4937L74.4764 9.11392H117.929V91.1392ZM45.3571 27.3418H18.1429V36.4557H45.3571V27.3418ZM45.3571 63.7975H18.1429V72.9114H45.3571V63.7975ZM18.1429 45.5696H45.3571V54.6835H18.1429V45.5696ZM108.857 27.3418H81.6429V36.4557H108.857V27.3418ZM81.6429 45.5696H108.857V54.6835H81.6429V45.5696ZM81.6429 63.7975H108.857V72.9114H81.6429V63.7975Z" fill="#FBFAF8"/>
</svg>
