<svg  viewBox="0 0 59 46" fill="none" xmlns="http://www.w3.org/2000/svg">
<path d="M55.8393 9.29801L47.4107 14.1136V4.18182C47.4107 1.87528 45.5209 0 43.1964 0H4.21429C1.88984 0 0 1.87528 0 4.18182V41.8182C0 44.1247 1.88984 46 4.21429 46H43.1964C45.5209 46 47.4107 44.1247 47.4107 41.8182V31.8864L55.8393 36.702C57.2419 37.5057 59 36.4994 59 34.8986V11.108C59 9.50057 57.2419 8.49432 55.8393 9.29801ZM17.3839 12.5455C17.3839 12.833 17.1469 13.0682 16.8571 13.0682H9.48214C9.19241 13.0682 8.95536 12.833 8.95536 12.5455V9.40909C8.95536 9.12159 9.19241 8.88636 9.48214 8.88636H16.8571C17.1469 8.88636 17.3839 9.12159 17.3839 9.40909V12.5455ZM54.2589 30.3835L47.4107 26.4761V19.5304L54.2589 15.6165V30.3835Z" fill="#FBFAF8"/>
</svg>
